<?xml version="1.0" encoding="UTF-8"?>
<svg xmlns="http://www.w3.org/2000/svg" xmlns:xlink="http://www.w3.org/1999/xlink" width="75px" height="100px" viewBox="0 0 75 100" version="1.1">
<defs>
<radialGradient id="radial0" gradientUnits="userSpaceOnUse" cx="173.841995" cy="490.729004" fx="173.841995" fy="490.729004" r="143.192001" gradientTransform="matrix(0.15,0,0,0.149254,0,0)">
<stop offset="0" style="stop-color:rgb(100%,0%,3.137255%);stop-opacity:1;"/>
<stop offset="1" style="stop-color:rgb(50.196078%,0%,1.960784%);stop-opacity:1;"/>
</radialGradient>
</defs>
<g id="surface1">
<path style=" stroke:none;fill-rule:nonzero;fill:url(#radial0);" d="M 27.84375 55.660156 C 29.449219 55.519531 31.683594 55.207031 34.554688 54.726562 C 36.859375 54.519531 38.851562 54.832031 40.523438 55.660156 C 43.25 56.917969 45.242188 59.316406 46.492188 62.859375 C 48.167969 67.449219 47.863281 72.703125 45.558594 78.609375 C 43.449219 83.894531 41.085938 87.441406 38.429688 89.246094 C 37.09375 90.152344 34.644531 90.886719 31.089844 91.4375 C 26.613281 92.203125 22.988281 92.3125 20.1875 91.75 C 15.011719 90.851562 11.171875 88.070312 8.65625 83.40625 C 5.238281 76.941406 3.972656 71.179688 4.882812 66.097656 C 5.859375 61.367188 8.585938 57.953125 13.058594 55.871094 C 16.136719 54.484375 18.855469 54.0625 21.242188 54.625 C 24.589844 55.378906 26.789062 55.730469 27.84375 55.660156 Z M 27.84375 55.660156 "/>
<path style=" stroke:none;fill-rule:nonzero;fill:rgb(100%,100%,100%);fill-opacity:1;" d="M 14.53125 63.699219 C 16.066406 63.757812 17.179688 64.210938 17.878906 65.046875 C 18.582031 65.75 18.726562 66.46875 18.304688 67.238281 C 17.878906 67.867188 17.050781 68.183594 15.785156 68.183594 C 14.59375 68.113281 13.550781 67.800781 12.636719 67.238281 C 11.804688 66.683594 11.628906 65.949219 12.121094 65.046875 C 12.671875 64.140625 13.480469 63.699219 14.53125 63.699219 Z M 14.53125 63.699219 "/>
<path style=" stroke:none;fill-rule:nonzero;fill:rgb(100%,56.862748%,56.862748%);fill-opacity:1;" d="M 24.589844 58.792969 L 25.855469 58.585938 C 26.753906 58.511719 27.527344 58.511719 28.160156 58.585938 C 29.132812 58.652344 31.15625 58.164062 34.234375 57.128906 C 32.972656 58.304688 31.476562 59.175781 29.730469 59.726562 C 28.195312 60.285156 27 60.5625 26.160156 60.5625 C 25.046875 60.632812 23.886719 60.355469 22.707031 59.726562 C 21.933594 59.316406 21.101562 58.621094 20.1875 57.640625 L 19.039062 56.183594 L 20.609375 57.128906 C 21.933594 57.8125 23.265625 58.375 24.589844 58.792969 Z M 24.589844 58.792969 "/>
<path style=" stroke:none;fill-rule:nonzero;fill:rgb(50.196081%,0%,1.960784%);fill-opacity:1;" d="M 21.027344 57.429688 C 22.214844 57.640625 23.511719 57.429688 24.90625 56.8125 C 25.886719 56.742188 26.261719 56.570312 26.054688 56.289062 C 26.121094 56.148438 26.207031 56.011719 26.261719 55.871094 C 26.476562 55.589844 26.648438 55.519531 26.789062 55.660156 C 27.074219 55.796875 27.914062 55.765625 29.308594 55.566406 L 28.78125 56.289062 C 28.5 56.777344 28.605469 57.160156 29.097656 57.441406 C 30.007812 57.851562 31.230469 57.886719 32.761719 57.535156 L 30.980469 58.265625 C 29.097656 59.035156 27.527344 59.457031 26.261719 59.527344 C 25.292969 59.597656 24.132812 59.28125 22.808594 58.585938 Z M 21.027344 57.429688 "/>
<path style=" stroke:none;fill-rule:nonzero;fill:rgb(54.901963%,63.137257%,0.392157%);fill-opacity:1;" d="M 68.515625 39.382812 L 69.664062 42.621094 L 70.085938 44.289062 L 70.402344 47.632812 L 70.402344 49.085938 L 70.085938 51.910156 L 69.347656 54.519531 L 67.777344 57.535156 L 66.316406 59.421875 L 66.105469 59.515625 L 66 59.726562 L 65.15625 60.460938 L 65.367188 59.726562 L 65.578125 58.375 L 65.46875 57.640625 L 65.367188 55.871094 L 64.945312 54.097656 L 63.480469 50.230469 L 62.953125 49.300781 L 60.441406 45.746094 L 57.089844 42.3125 L 52.476562 38.664062 L 48.601562 34.496094 L 46.507812 31.253906 L 44.925781 27.808594 L 43.570312 23.019531 L 43.148438 18.324219 L 43.25 15.921875 L 43.882812 12.371094 L 45.03125 8.828125 L 45.871094 14.140625 L 46.8125 16.960938 L 48.496094 19.570312 L 50.488281 21.863281 L 64.433594 33.339844 L 66.734375 36.265625 Z M 68.515625 39.382812 "/>
<path style=" stroke:none;fill-rule:nonzero;fill:rgb(38.039216%,43.137255%,0.392157%);fill-opacity:1;" d="M 66.734375 36.265625 L 68.515625 39.382812 L 69.664062 42.621094 L 70.085938 44.289062 L 70.402344 47.425781 L 70.191406 51.488281 L 69.558594 53.996094 L 68.515625 56.5 L 66.632812 59.109375 L 66.421875 59.109375 L 66.421875 59.316406 L 65.367188 60.460938 L 67.675781 56.707031 L 68.726562 54.203125 L 69.242188 51.59375 L 69.347656 50.335938 L 68.941406 46.796875 L 68.199219 44.816406 L 68.09375 44.605469 L 67.882812 44.289062 L 66.421875 41.167969 L 64.535156 38.664062 L 61.808594 35.949219 L 52.898438 28.75 L 48.90625 24.683594 L 46.402344 20.511719 L 45.03125 16.332031 L 44.503906 13.417969 L 44.714844 10.808594 L 45.136719 9.761719 L 45.34375 11.953125 L 46.296875 15.921875 L 48.285156 19.464844 L 49.539062 21.027344 L 51.117188 22.492188 L 64.433594 33.339844 Z M 66.734375 36.265625 "/>
<path style=" stroke:none;fill-rule:nonzero;fill:rgb(42.352942%,49.019608%,0.784314%);fill-opacity:1;" d="M 53.726562 29.171875 L 63.167969 36.984375 L 65.578125 39.804688 L 67.148438 42.3125 L 68.304688 44.917969 L 69.042969 47.738281 L 69.347656 50.140625 L 68.304688 45.652344 L 65.578125 40.332031 L 62.847656 37.195312 L 61.386719 35.84375 L 52.585938 28.855469 L 49.644531 25.933594 L 46.597656 21.550781 L 44.714844 16.644531 L 44.097656 13.734375 L 44.820312 13.105469 L 46.296875 19.363281 L 47.125 21.445312 L 49.328125 24.789062 L 53.414062 29.0625 Z M 53.726562 29.171875 "/>
<path style=" stroke:none;fill-rule:nonzero;fill:rgb(40.784314%,47.058824%,0.784314%);fill-opacity:1;" d="M 46.402344 15.820312 L 47.023438 17.171875 L 46.402344 17.484375 L 45.453125 18.625 L 44.609375 20.097656 L 44.304688 21.761719 L 44.503906 23.121094 L 44.503906 23.738281 L 44.820312 25.933594 L 45.871094 29.902344 L 43.988281 24.683594 L 43.25 20.722656 L 43.148438 18.117188 L 43.570312 14.140625 L 45.03125 8.828125 L 45.453125 12.894531 Z M 46.402344 15.820312 "/>
<path style=" stroke:none;fill-rule:nonzero;fill:rgb(42.352942%,49.019608%,0.784314%);fill-opacity:1;" d="M 49.644531 25.417969 L 50.066406 25.617188 L 50.171875 25.71875 L 50.171875 26.140625 L 50.066406 26.351562 L 50.066406 26.664062 L 49.960938 27.191406 L 50.066406 30.308594 L 50.171875 30.519531 L 50.488281 31.78125 L 49.75 30.101562 L 49.539062 29.800781 L 49.328125 28.957031 L 49.117188 27.503906 L 49.117188 26.875 L 49.222656 26.351562 L 49.433594 25.71875 L 49.539062 25.523438 Z M 49.644531 25.417969 "/>
<path style=" stroke:none;fill-rule:nonzero;fill:rgb(42.352942%,49.019608%,0.784314%);fill-opacity:1;" d="M 55.097656 30.625 L 55.207031 31.046875 L 55.097656 33.234375 L 55.3125 34.28125 L 55.71875 35.320312 L 55.933594 35.636719 L 56.035156 36.054688 L 56.140625 36.160156 L 56.246094 36.371094 L 56.351562 36.683594 L 56.457031 36.882812 L 56.5625 37.195312 L 56.5625 37.402344 L 56.667969 37.402344 L 56.667969 37.617188 L 56.5625 37.402344 L 54.785156 34.175781 L 54.363281 32.09375 L 54.363281 31.359375 L 54.253906 30.9375 L 54.253906 30.519531 L 54.363281 30.519531 L 54.363281 30.203125 L 54.464844 30.101562 L 54.574219 30.101562 Z M 55.097656 30.625 "/>
<path style=" stroke:none;fill-rule:nonzero;fill:rgb(42.352942%,49.019608%,0.784314%);fill-opacity:1;" d="M 62.324219 41.578125 L 61.386719 40.015625 L 60.121094 36.984375 L 59.605469 34.902344 L 59.605469 34.074219 L 59.710938 34.175781 L 60.03125 34.386719 L 60.226562 34.691406 L 60.441406 35.109375 L 60.542969 36.683594 L 61.175781 38.96875 Z M 62.324219 41.578125 "/>
<path style=" stroke:none;fill-rule:nonzero;fill:rgb(42.352942%,49.019608%,0.784314%);fill-opacity:1;" d="M 65.15625 41.261719 L 65.15625 41.167969 L 65.261719 40.539062 L 65.367188 40.226562 L 65.46875 40.121094 L 65.578125 40.332031 L 66.105469 43.976562 L 65.894531 46.898438 L 65.894531 45.546875 L 65.261719 41.996094 L 65.261719 41.679688 Z M 65.15625 41.261719 "/>
<path style=" stroke:none;fill-rule:nonzero;fill:rgb(42.352942%,49.019608%,0.784314%);fill-opacity:1;" d="M 68.304688 48.355469 L 68.515625 47.320312 L 68.726562 47.109375 L 69.042969 47.320312 L 68.621094 48.566406 L 68.515625 49.085938 L 68.09375 50.449219 L 67.355469 52.015625 L 68.304688 48.984375 Z M 68.304688 48.355469 "/>
<path style=" stroke:none;fill-rule:nonzero;fill:rgb(42.352942%,49.019608%,0.784314%);fill-opacity:1;" d="M 51.632812 26.035156 L 50.171875 26.351562 L 49.851562 25.523438 L 50.171875 25.210938 L 50.488281 25 L 51.015625 25 L 52.058594 25.417969 L 52.898438 25.617188 L 54.785156 26.351562 L 53.003906 26.035156 Z M 51.632812 26.035156 "/>
<path style=" stroke:none;fill-rule:nonzero;fill:rgb(42.352942%,49.019608%,0.784314%);fill-opacity:1;" d="M 57.816406 30.203125 L 57.195312 30.007812 L 56.667969 30.101562 L 56.351562 30.101562 L 56.035156 30.203125 L 55.207031 31.046875 L 54.363281 30.007812 L 54.992188 29.691406 L 56.457031 29.691406 L 58.972656 30.417969 Z M 57.816406 30.203125 "/>
<path style=" stroke:none;fill-rule:nonzero;fill:rgb(42.352942%,49.019608%,0.784314%);fill-opacity:1;" d="M 63.480469 34.175781 L 62.953125 34.074219 L 62.429688 34.074219 L 61.808594 33.96875 L 61.386719 33.96875 L 60.332031 34.28125 L 60.121094 34.28125 L 60.03125 34.386719 L 59.605469 34.175781 L 60.03125 33.761719 L 61.597656 33.546875 L 61.914062 33.65625 L 62.230469 33.863281 Z M 63.480469 34.175781 "/>
<path style=" stroke:none;fill-rule:nonzero;fill:rgb(42.352942%,49.019608%,0.784314%);fill-opacity:1;" d="M 67.148438 40.226562 L 68.199219 40.855469 L 66.9375 40.332031 L 66.421875 40.226562 L 66.105469 40.332031 L 65.578125 40.332031 L 65.367188 40.121094 L 65.46875 39.804688 L 66.527344 39.804688 L 66.839844 39.910156 Z M 67.148438 40.226562 "/>
<path style=" stroke:none;fill-rule:nonzero;fill:rgb(63.529414%,69.01961%,0.784314%);fill-opacity:1;" d="M 32.5625 31.046875 C 29.132812 38.210938 27.28125 44.816406 27 50.859375 C 26.863281 54.550781 27.210938 57.257812 28.054688 59.003906 C 26.929688 59.621094 26.101562 59.65625 25.539062 59.109375 C 25.257812 58.828125 25.082031 58.339844 25.011719 57.640625 L 24.90625 56.8125 C 24.625 56.042969 24.484375 54.761719 24.484375 52.945312 C 24.554688 49.332031 25.257812 44.816406 26.59375 39.382812 C 28.195312 33.058594 30.921875 27.117188 34.761719 21.550781 C 38.261719 16.484375 40.113281 13.035156 40.324219 11.230469 L 40.523438 8.410156 L 41.367188 7.992188 C 42.140625 7.78125 43.019531 7.921875 43.988281 8.410156 C 45.382812 9.109375 45.945312 9.703125 45.664062 10.179688 C 44.34375 11.789062 43.324219 13.628906 42.632812 15.714844 C 42.28125 16.613281 40.910156 18.671875 38.53125 21.863281 C 35.804688 25.417969 33.816406 28.46875 32.5625 31.046875 Z M 32.5625 31.046875 "/>
<path style=" stroke:none;fill-rule:nonzero;fill:rgb(51.372552%,58.823532%,0.784314%);fill-opacity:1;" d="M 31.402344 31.253906 C 33.359375 27.714844 35.523438 24.40625 37.902344 21.355469 C 40.066406 18.5 41.847656 15.226562 43.25 11.542969 C 43.601562 10.636719 43.777344 9.5625 43.777344 8.304688 L 43.988281 8.410156 C 45.382812 9.109375 45.945312 9.703125 45.664062 10.179688 C 44.328125 11.789062 43.324219 13.628906 42.621094 15.714844 C 42.269531 16.613281 40.910156 18.671875 38.53125 21.863281 C 35.804688 25.417969 33.816406 28.46875 32.5625 31.046875 C 29.132812 38.210938 27.28125 44.816406 27 50.859375 C 26.863281 54.550781 27.210938 57.257812 28.054688 59.003906 C 26.929688 59.621094 26.101562 59.65625 25.539062 59.109375 L 25.117188 58.164062 C 25.746094 58.375 26.132812 58.480469 26.273438 58.480469 C 26.824219 58.546875 27 57.640625 26.789062 55.765625 C 26.453125 52.210938 26.347656 48.917969 26.484375 45.851562 C 26.6875 41.75 28.335938 36.882812 31.402344 31.253906 Z M 31.402344 31.253906 "/>
<path style=" stroke:none;fill-rule:nonzero;fill:rgb(78.431374%,85.882354%,27.450982%);fill-opacity:1;" d="M 41.050781 10.289062 C 41.121094 9.527344 41.226562 9.074219 41.367188 8.933594 C 41.507812 8.863281 41.648438 9.003906 41.777344 9.355469 C 41.984375 9.761719 41.777344 10.949219 41.15625 12.894531 C 40.453125 15.191406 38.957031 17.835938 36.648438 20.828125 C 35.171875 22.773438 34.308594 23.84375 34.027344 24.054688 C 33.675781 24.335938 33.851562 23.984375 34.554688 23.019531 C 36.226562 20.445312 37.480469 18.660156 38.324219 17.695312 C 38.957031 16.925781 39.574219 15.714844 40.207031 14.046875 C 40.699219 12.511719 40.980469 11.265625 41.050781 10.289062 Z M 41.050781 10.289062 "/>
</g>
</svg>
